# xmcd
#
# Track frame offsets:
# 150
# 13058
# 25450
# 33640
# 45206
# 55230
# 65269
# 76469
# 89442
# 101689
# 114657
# 123373
# 134752
# 147354
# 163258
# 175532
# 184087
# 199239
# 209439
# 221648
#
# Disc length: 3182 seconds
#
#
# Revision: 0
# Processed by: cddbd v1.5.2PL0 Copyright (c) Steve Scherf et al.
# Submitted via: FreeRIP 2.944 
#
DISCID=290c6c14
DTITLE=Various Artist - I Love Country - 60 Classic Country Hits - CD 1
DYEAR=1900
DGENRE=Country
TTITLE0=Lynn Anderson - Rose Garden
TTITLE1=Charlie Rich - Behind Closed Doors
TTITLE2=Johnny Cash - Country Boy
TTITLE3=Frankie Laine - Mule Train
TTITLE4=Ferlin Husky - The Wings Of A Dove
TTITLE5=Kitty Wells - I Can't Stop Loving You
TTITLE6=Roger Miller - King Of The Road
TTITLE7=Charley Pride - Kaw- Liga
TTITLE8=Sammi Smith - Send Me The Pillow That You Dream On
TTITLE9=Don Williams - Where Do We Go From Here
TTITLE10=Gene Autry - Tears On My Pillow
TTITLE11=Patsy Cline - Crazy Dreams
TTITLE12=Jim Reeves - Bimbo
TTITLE13=Skeeter Davis - I Honestly Love You
TTITLE14=Hank Thompson - Wild Side Of Life
TTITLE15=Waylon Jennings - Abilene
TTITLE16=Earl Thomas Conley - The Night They Drove Old Dixie Down
TTITLE17=Dolly Parton - Release Me
TTITLE18=Willie Nelson - Shelter Of Your Arms
TTITLE19=Glen Campbell - Southern Nights
EXTD=
EXTT0=
EXTT1=
EXTT2=
EXTT3=
EXTT4=
EXTT5=
EXTT6=
EXTT7=
EXTT8=
EXTT9=
EXTT10=
EXTT11=
EXTT12=
EXTT13=
EXTT14=
EXTT15=
EXTT16=
EXTT17=
EXTT18=
EXTT19=
PLAYORDER=
